<?xml version="1.0" standalone="no"?>
<!DOCTYPE svg PUBLIC "-//W3C//DTD SVG 20010904//EN"
 "http://www.w3.org/TR/2001/REC-SVG-20010904/DTD/svg10.dtd">
<svg version="1.0" xmlns="http://www.w3.org/2000/svg"
 width="314.000000pt" height="314.000000pt" viewBox="0 0 314.000000 314.000000"
 preserveAspectRatio="xMidYMid meet">
<metadata>
Created by potrace 1.11, written by Peter Selinger 2001-2013
</metadata>
<g transform="translate(0.000000,314.000000) scale(0.100000,-0.100000)"
fill="#000000" stroke="none">
<path d="M1428 3135 c-1 -1 -28 -6 -59 -9 -31 -4 -67 -9 -80 -11 -13 -3 -36
-7 -50 -10 -43 -8 -201 -55 -239 -72 -336 -146 -569 -336 -745 -607 -168 -258
-246 -519 -249 -826 -2 -232 14 -341 75 -524 51 -156 165 -368 254 -475 25
-31 121 -137 144 -160 224 -224 580 -393 906 -429 139 -16 382 -6 495 20 25 5
56 12 70 14 57 11 211 68 300 111 260 125 469 308 633 554 58 88 145 261 166
334 7 22 16 49 21 60 14 31 49 194 57 265 5 36 8 139 7 230 -1 129 -6 188 -23
270 -137 650 -623 1127 -1271 1246 -72 14 -401 29 -412 19z m452 -541 c167
-31 276 -82 365 -169 107 -104 155 -236 149 -410 -4 -148 -55 -260 -160 -354
l-55 -48 65 -42 c143 -92 216 -234 217 -421 3 -293 -142 -493 -426 -590 -125
-43 -222 -50 -705 -50 l-456 0 0 1050 0 1051 466 -1 c355 -1 483 -5 540 -16z"/>
<path d="M1503 2112 l-33 -3 0 -148 0 -147 108 1 c130 2 165 16 193 78 32 71
19 143 -34 190 -11 9 -20 17 -21 18 -4 4 -188 13 -213 11z"/>
<path d="M1470 1180 l0 -171 125 2 c150 1 191 16 231 86 22 37 26 53 22 99 -5
58 -24 93 -72 128 -24 18 -45 21 -167 24 l-139 4 0 -172z"/>
</g>
</svg>
