<?xml version="1.0" encoding="UTF-8"?>
<svg width="194px" height="150px" viewBox="0 0 194 150" version="1.1" xmlns="http://www.w3.org/2000/svg" xmlns:xlink="http://www.w3.org/1999/xlink">
    <!-- Generator: Sketch 52.2 (67145) - http://www.bohemiancoding.com/sketch -->
    <title>Fill 1</title>
    <desc>Created with Sketch.</desc>
    <g id="Page-1" stroke="none" stroke-width="1" fill="none" fill-rule="evenodd">
        <g id="ato2017_speaker_v1" transform="translate(-100.000000, -50.000000)" fill="#E20000">
            <g id="Page-1" transform="translate(100.000000, 50.000000)">
                <path d="M103.703983,126.254075 L102.15301,126.52839 L102.15301,133.098596 L103.703983,132.825308 L103.703983,126.254075 Z M106.316311,127.174623 L107.026618,127.048253 C107.328396,126.995856 107.687655,127.050308 107.687655,127.673938 L107.687655,127.740719 C107.687655,128.365377 107.328396,128.545171 107.026618,128.599623 L106.316311,128.724966 L106.316311,127.174623 Z M109.255052,127.515719 L109.255052,127.346199 C109.255052,125.526678 108.038703,125.488664 106.961951,125.678733 L104.765338,126.066062 L104.765338,132.638322 L106.316311,132.364007 L106.316311,130.106815 L106.961951,129.992774 C108.038703,129.802705 109.255052,129.33524 109.255052,127.515719 Z M111.564576,139.861952 L113.115549,139.588664 L113.115549,137.987979 L111.564576,138.262295 L111.564576,139.861952 Z M106.667359,140.727021 L110.667454,140.020171 L110.667454,138.639349 L108.218332,139.071884 L108.218332,137.790719 L110.259951,137.430103 L110.259951,136.048253 L108.218332,136.40887 L108.218332,135.263322 L110.667454,134.830788 L110.667454,133.448938 L106.667359,134.15476 L106.667359,140.727021 Z M103.402205,134.614007 C101.688025,134.916062 100.937687,136.009212 100.937687,138.28387 L100.937687,138.620856 C100.937687,140.895514 101.688025,141.723596 103.402205,141.421541 C104.962417,141.145171 105.770237,140.37976 105.770237,138.68661 L105.770237,138.609555 L104.219263,138.88387 C104.219263,139.473596 104.030396,139.928733 103.484322,140.024281 L103.402205,140.038664 C102.626205,140.176336 102.512269,139.47976 102.512269,138.343459 L102.512269,138.005445 C102.512269,136.868116 102.626205,136.131473 103.402205,135.994829 L103.484322,135.980445 C104.096089,135.872568 104.219263,136.356473 104.219263,137.114692 L105.770237,136.841404 L105.770237,136.51161 C105.770237,134.819486 104.962417,134.337637 103.402205,134.614007 Z M93.2403005,140.964349 C93.2403005,141.487295 93.1017291,141.857158 92.4242688,141.977363 C91.7468085,142.096541 91.6072106,141.774966 91.6072106,141.253048 L91.6072106,136.812637 L90.056237,137.086952 L90.056237,141.568459 C90.056237,142.950308 90.5787026,143.68387 92.4242688,143.358185 C94.2688085,143.0325 94.7902476,142.115034 94.7902476,140.733185 L94.7902476,136.250651 L93.2403005,136.524966 L93.2403005,140.964349 Z M93.4527767,130.684212 C92.5946603,130.717089 92.4643005,130.537295 92.4643005,130.1325 L92.4643005,130.099623 C92.4643005,129.762637 92.6849884,129.462637 93.1335492,129.383527 L93.2146392,129.368116 C93.7874011,129.268459 93.9906392,129.585925 93.9906392,130.327705 L95.5416127,130.05339 L95.5416127,129.875651 C95.5416127,128.284212 94.8241206,127.702705 93.2146392,127.987295 C91.6811153,128.2575 90.8897185,129.197568 90.8897185,130.420171 L90.8897185,130.512637 C90.8897185,131.800993 91.5907873,132.132842 92.9785545,132.081473 C93.8356444,132.048596 94.0070624,132.244829 94.0070624,132.623938 L94.0070624,132.657842 C94.0070624,132.97839 93.7874011,133.311267 93.2556974,133.405788 L93.1746074,133.420171 C92.6439302,133.513664 92.3986074,133.270171 92.3986074,132.545856 L90.8486603,132.820171 L90.8486603,132.895171 C90.8486603,134.546199 91.6646921,135.068116 93.2146392,134.794829 C94.7748508,134.519486 95.5826709,133.626678 95.5826709,132.338322 L95.5826709,132.244829 C95.5826709,130.955445 94.8395175,130.632842 93.4527767,130.684212 Z M98.6928296,137.752705 C98.6928296,138.376336 98.3335704,138.558185 98.0317926,138.610582 L97.3204593,138.735925 L97.3204593,137.18661 L98.0317926,137.061267 C98.3335704,137.007842 98.6928296,137.062295 98.6928296,137.685925 L98.6928296,137.752705 Z M97.9660995,135.690719 L95.7705122,136.079075 L95.7705122,142.649281 L97.3204593,142.375993 L97.3204593,140.117774 L97.7536233,140.041747 L98.5871048,142.153048 L100.260226,141.858185 L99.2799619,139.552705 C99.8434857,139.193116 100.260226,138.597226 100.260226,137.527705 L100.260226,137.359212 C100.260226,135.538664 99.0438772,135.500651 97.9660995,135.690719 Z M116.421761,132.314692 C114.707581,132.617774 113.956216,133.710925 113.956216,135.98661 L113.956216,136.323596 C113.956216,138.598253 114.707581,139.425308 116.421761,139.122226 C117.980946,138.847911 118.788766,138.0825 118.788766,136.388322 L118.788766,136.312295 L117.238819,136.58661 C117.238819,137.176336 117.049951,137.630445 116.503877,137.727021 L116.421761,137.741404 C115.646787,137.878048 115.531824,137.1825 115.531824,136.044144 L115.531824,135.707158 C115.531824,134.570856 115.646787,133.834212 116.421761,133.697568 L116.503877,133.682158 C117.115644,133.574281 117.238819,134.059212 117.238819,134.817432 L118.788766,134.543116 L118.788766,134.214349 C118.788766,132.521199 117.980946,132.040377 116.421761,132.314692 Z M96.4397608,127.536267 L96.4397608,134.1075 L97.9907344,133.834212 L97.9907344,131.171199 L99.5406815,130.897911 L99.5406815,133.559897 L101.092681,133.28661 L101.092681,126.714349 L99.5406815,126.988664 L99.5406815,129.516062 L97.9907344,129.789349 L97.9907344,127.261952 L96.4397608,127.536267 Z M43.4952106,102.100993 L52.4859302,100.513664 L52.4859302,92.0931164 L43.4952106,93.6794178 L43.4952106,102.100993 Z M88.5463217,131.118801 C88.5463217,131.743459 88.1870624,131.924281 87.8852847,131.977705 L87.1739513,132.103048 L87.1739513,130.552705 L87.8852847,130.427363 C88.1870624,130.373938 88.5463217,130.42839 88.5463217,131.052021 L88.5463217,131.118801 Z M90.1137185,130.893801 L90.1137185,130.725308 C90.1137185,128.90476 88.8973693,128.866747 87.8195915,129.057842 L85.6240042,129.444144 L85.6240042,136.016404 L87.1739513,135.742089 L87.1739513,133.484897 L87.6071153,133.40887 L88.4405968,135.519144 L90.1137185,135.223253 L89.1344804,132.919829 C89.6969778,132.559212 90.1137185,131.963322 90.1137185,130.893801 Z M9.42511534,100.215719 L9.42511534,117.344486 L20.2583217,115.433527 L20.2583217,98.3037329 L9.42511534,100.215719 Z M124.637507,104.195856 C124.637507,104.450651 124.552311,104.67976 124.382946,104.882158 C124.212554,105.087637 124.006237,105.211952 123.760914,105.255103 L117.352756,106.38524 C117.106406,106.429418 116.906248,106.377021 116.752279,106.230103 C116.599338,106.083185 116.522353,105.882842 116.522353,105.628048 L116.522353,82.1705137 C116.522353,81.917774 116.437158,81.7256507 116.268819,81.597226 C116.099454,81.467774 115.89211,81.4246233 115.646787,81.4688014 L106.517496,83.0797603 C106.271147,83.1239384 106.06483,83.2390068 105.895465,83.4270205 C105.727126,83.6160616 105.642957,83.8379795 105.642957,84.0907192 L105.642957,107.548253 C105.642957,108.151336 105.350417,108.50476 104.766364,108.606473 L98.4033693,109.730445 C97.8193164,109.833185 97.5278032,109.583527 97.5278032,108.981473 L97.5278032,77.4814726 C97.5278032,76.8794178 97.8193164,76.5259932 98.4033693,76.4232534 L119.243486,72.7451712 C119.979454,72.6146918 120.67847,72.6424315 121.340533,72.827363 C122.00157,73.0122945 122.570226,73.3081849 123.046502,73.7150342 C123.195338,73.8434589 123.333909,73.9831849 123.465295,74.1331849 L123.485824,74.1568151 C123.76502,74.4783904 124.002131,74.8503082 124.198184,75.2735959 C124.490724,75.9033904 124.637507,76.5989384 124.637507,77.3602397 L124.637507,104.195856 Z M90.1978878,84.7708562 C90.1978878,85.0246233 90.1116656,85.2465411 89.943327,85.4345548 C89.7739619,85.6235959 89.5676444,85.737637 89.3212952,85.7818151 L73.8762265,88.5075 C73.7222582,88.5342123 73.647327,88.6277055 73.647327,88.7859247 L73.647327,93.972226 C73.647327,94.0996233 73.7222582,94.1489384 73.8762265,94.122226 L87.0169037,91.8033904 C87.2622265,91.7602397 87.4695704,91.8116096 87.6389354,91.9544178 C87.8072741,92.1003082 87.8924698,92.2985959 87.8924698,92.552363 L87.8924698,97.3102397 C87.8924698,97.9133219 87.6009566,98.2667466 87.0169037,98.3684589 L73.8762265,100.688322 C73.7222582,100.716062 73.647327,100.8075 73.647327,100.967774 L73.647327,106.105788 C73.647327,106.265034 73.7222582,106.32976 73.8762265,106.303048 L89.3212952,103.577363 C89.5676444,103.534212 89.7739619,103.585582 89.943327,103.72839 C90.1116656,103.874281 90.1978878,104.072568 90.1978878,104.326336 L90.1978878,110.273938 C90.1978878,110.528733 90.1116656,110.757842 89.943327,110.96024 C89.7739619,111.165719 89.5676444,111.290034 89.3212952,111.333185 L70.9261947,114.57976 C70.1881735,114.71024 69.4891577,114.689692 68.8281206,114.521199 C68.1670836,114.351678 67.5902159,114.057842 67.0995704,113.637637 C66.6078984,113.217432 66.2229778,112.689349 65.9468614,112.056473 C65.6697185,111.422568 65.5321735,110.725993 65.5321735,109.964692 L65.5321735,87.7914041 C65.5321735,87.0311301 65.6697185,86.2852397 65.9468614,85.5537329 C66.2229778,84.8232534 66.6078984,84.1688014 67.0995704,83.5903767 C67.5902159,83.0109247 68.1670836,82.5136644 68.8281206,82.0955137 C69.4891577,81.6763356 70.1881735,81.4030479 70.9261947,81.2725685 L89.3212952,78.0259932 C89.5676444,77.9828425 89.7739619,78.0331849 89.943327,78.1780479 C90.1116656,78.322911 90.1978878,78.522226 90.1978878,78.7749658 L90.1978878,84.7708562 Z M65.0702688,74.622226 C64.4862159,74.7259932 64.1947026,74.4763356 64.1947026,73.8732534 L64.1947026,42.3742808 C64.1947026,41.772226 64.4862159,41.4188014 65.0702688,41.3150342 L71.4332635,40.192089 C72.0162899,40.0903767 72.3088296,40.3400342 72.3088296,40.942089 L72.3088296,72.4400342 C72.3088296,73.0431164 72.0162899,73.3965411 71.4332635,73.4992808 L65.0702688,74.622226 Z M60.3229143,101.319144 C60.3229143,102.081473 60.1771577,102.829418 59.884618,103.561952 C59.5920783,104.296541 59.2092106,104.950993 58.731909,105.525308 C58.2566603,106.102705 57.6880042,106.598938 57.0259407,107.016062 C56.3659302,107.43524 55.6658878,107.708527 54.9278667,107.839007 L44.6479196,109.65339 C44.4015704,109.696541 44.1932,109.812637 44.0248614,110.001678 C43.8554963,110.189692 43.771327,110.410582 43.771327,110.664349 L43.771327,118.467432 C43.771327,119.071541 43.4787873,119.423938 42.8957608,119.526678 L36.5337926,120.649623 C35.9487132,120.75339 35.6572,120.502705 35.6572,119.899623 L35.6572,88.4006507 C35.6572,87.7985959 35.9487132,87.4461986 36.5337926,87.3424315 L54.9278667,84.0958562 C55.6658878,83.9653767 56.3659302,83.9931164 57.0259407,84.1780479 C57.6880042,84.3629795 58.2566603,84.6588699 58.731909,85.0657192 C59.2092106,85.4756507 59.5920783,85.9924315 59.884618,86.6242808 C60.1771577,87.2540753 60.3229143,87.9506507 60.3229143,88.7109247 L60.3229143,101.319144 Z M29.7561101,79.9513356 L29.7561101,48.452363 C29.7561101,47.8503082 30.0476233,47.4968836 30.6327026,47.3931164 L36.9946709,46.2701712 C37.5776974,46.1684589 37.870237,46.4181164 37.870237,47.0201712 L37.870237,57.6783904 C37.870237,58.2814726 38.1617503,58.5311301 38.7468296,58.427363 L47.8740677,56.8164041 C48.1204169,56.7732534 48.3195492,56.6509932 48.4735175,56.4496233 C48.6274857,56.2482534 48.7034434,56.0211986 48.7034434,55.7664041 L48.7034434,45.1081849 C48.7034434,44.8544178 48.7886392,44.6263356 48.9580042,44.4218836 C49.1253164,44.2164041 49.3336868,44.092089 49.580036,44.0489384 L55.9881947,42.9188014 C56.2335175,42.8756507 56.4418878,42.9259932 56.6112529,43.0698288 C56.7795915,43.2157192 56.8637608,43.4140068 56.8637608,43.667774 L56.8637608,75.1657192 C56.8637608,75.4205137 56.7795915,75.6496233 56.6112529,75.8520205 C56.4418878,76.0585274 56.2335175,76.1818151 55.9881947,76.2249658 L49.580036,77.3561301 C49.3336868,77.3992808 49.1253164,77.3489384 48.9580042,77.2040753 C48.7886392,77.0602397 48.7034434,76.8609247 48.7034434,76.6071575 L48.7034434,65.6160616 C48.7034434,65.3612671 48.6274857,65.1691438 48.4735175,65.037637 C48.3195492,64.9061301 48.1204169,64.8619521 47.8740677,64.9051027 L38.7468296,66.5160616 C38.499454,66.5592123 38.2921101,66.6763356 38.122745,66.8643493 C37.9544063,67.0533904 37.870237,67.2742808 37.870237,67.5280479 L37.870237,78.5181164 C37.870237,79.122226 37.5776974,79.4746233 36.9946709,79.577363 L30.6327026,80.7003082 C30.0476233,80.8040753 29.7561101,80.5544178 29.7561101,79.9513356 Z M192.786935,78.8571575 L184.884258,68.3027055 C184.984851,67.8804452 185.052597,67.4551027 185.052597,67.0235959 L185.052597,58.6482534 C185.052597,57.9372945 184.915052,57.2931164 184.642015,56.717774 C184.491126,56.4013356 184.308417,56.1167466 184.106205,55.8547603 C184.065147,55.7961986 179.383486,49.2609247 179.340375,49.2044178 C179.338322,49.2003082 179.336269,49.1961986 179.333189,49.192089 L183.282988,48.4944863 C183.512914,48.4533904 183.706914,48.3465411 183.866015,48.1688014 C184.023062,47.9931164 184.103126,47.7866096 184.103126,47.5482534 L184.103126,42.0701712 C184.103126,41.8379795 184.05283,41.6664041 183.960449,41.5461986 L183.962502,41.5451712 L171.397666,23.0705137 C171.379189,23.0407192 171.356607,23.0129795 171.32992,22.9903767 L171.328893,22.9893493 C171.389454,23.1105822 171.430512,23.2544178 171.430512,23.4485959 L171.430512,29.3006507 C171.430512,29.5554452 171.345316,29.7763356 171.178004,29.9633219 C171.007613,30.1533904 170.800269,30.2684589 170.554946,30.3116096 L155.847898,32.9078425 C155.602576,32.9509932 155.402417,33.0742808 155.249475,33.2746233 C155.093454,33.4759932 155.018523,33.7040753 155.018523,33.9578425 L155.018523,37.8116096 C155.018523,38.0664041 155.093454,38.2667466 155.249475,38.412637 C155.402417,38.5616096 155.602576,38.6129795 155.847898,38.5688014 L167.050629,36.592089 C167.78865,36.462637 168.487666,36.4811301 169.148703,36.6496233 C169.808713,36.8191438 170.378396,37.1150342 170.855697,37.5383219 C171.330946,37.9616096 171.71484,38.4804452 172.00738,39.0958562 C172.298893,39.7112671 172.445676,40.3985959 172.445676,41.1588699 L172.445676,50.1044178 C172.445676,50.8657192 172.298893,51.6136644 172.00738,52.3461986 C171.71484,53.0797603 171.330946,53.7434589 170.855697,54.3352397 C170.378396,54.9259932 169.808713,55.4232534 169.148703,55.8249658 C168.487666,56.2266781 167.78865,56.4938014 167.050629,56.6242808 L148.655528,59.8708562 C148.072502,59.9725685 147.778935,59.7239384 147.778935,59.1208562 L147.778935,53.3633219 C147.778935,53.1105822 147.863105,52.8804452 148.033496,52.6770205 C148.202861,52.4725685 148.410205,52.3482534 148.655528,52.3051027 L164.330523,49.5383219 C164.576872,49.4951712 164.785242,49.3790753 164.953581,49.1900342 C165.122946,49.0020205 165.207115,48.7821575 165.207115,48.527363 L165.207115,44.5780479 C165.207115,44.3242808 165.122946,44.1259932 164.953581,43.9811301 C164.785242,43.8362671 164.576872,43.7848973 164.330523,43.8280479 L153.173983,45.7965411 C152.436988,45.9270205 151.737972,45.9085274 151.075909,45.7400342 C150.414872,45.5715411 149.839031,45.2766781 149.347359,44.8544178 C148.855687,44.4342123 148.470766,43.9153767 148.19465,43.2989384 C147.917507,42.6804452 147.778935,41.9910616 147.778935,41.2307877 L147.778935,39.5664041 C147.754301,39.5294178 147.704004,39.4533904 147.704004,39.4533904 L139.102311,28.7838699 C139.102311,28.7838699 139.071517,28.7458562 139.052015,28.727363 C139.119761,28.8444863 139.158766,28.9821575 139.158766,29.1434589 L139.158766,35.4249658 C139.158766,35.6787329 139.072544,35.9078425 138.905232,36.1122945 C138.73484,36.3167466 138.528523,36.4400342 138.2832,36.4831849 L122.838131,39.2088699 C122.590756,39.2520205 122.384438,39.3691438 122.215073,39.5561301 C122.046734,39.7461986 121.962565,39.967089 121.962565,40.2198288 L121.962565,55.6359247 C121.962565,55.8907192 122.046734,56.0818151 122.215073,56.2092123 C122.384438,56.3396918 122.590756,56.3807877 122.838131,56.337637 L131.966396,54.7266781 C132.211719,54.6835274 132.411877,54.5705137 132.564819,54.3835274 C132.719814,54.1975685 132.795771,53.9777055 132.795771,53.7239384 L132.795771,45.397911 C132.795771,45.1441438 132.879941,44.9150342 133.049306,44.7105822 C133.217644,44.5071575 133.426015,44.3828425 133.671338,44.3396918 L140.079496,43.2085274 C140.325846,43.1643493 140.534216,43.2157192 140.703581,43.3595548 C140.87192,43.5044178 140.956089,43.7037329 140.956089,43.9575 L140.956089,55.6616096 C140.956089,56.422911 140.809306,57.1708562 140.518819,57.9044178 C140.226279,58.6379795 139.841359,59.3006507 139.365084,59.8924315 C138.888808,60.4831849 138.321179,60.9804452 137.660142,61.3821575 C136.999105,61.7838699 136.300089,62.0509932 135.563094,62.1814726 L119.242459,65.0612671 C118.503412,65.1917466 117.804396,65.172226 117.144385,65.0027055 C116.482322,64.8342123 115.90648,64.5403767 115.414808,64.1191438 C114.924163,63.6989384 114.539242,63.1718836 114.262099,62.5369521 C113.985983,61.9051027 113.847412,61.2064726 113.847412,60.4461986 L113.847412,45.1564726 L105.565972,36.4266781 L105.564946,36.4266781 L105.51465,36.3732534 C105.787687,36.6855822 106.026851,37.042089 106.217771,37.4551027 C106.509285,38.0869521 106.656068,38.7814726 106.656068,39.5438014 L106.656068,66.3794178 C106.656068,66.6331849 106.571898,66.8612671 106.40356,67.0657192 C106.233168,67.2701712 106.025824,67.3944863 105.779475,67.437637 L99.3713164,68.5688014 C99.1259937,68.6119521 98.9258349,68.5605822 98.7718667,68.4116096 C98.6178984,68.2667466 98.5429672,68.0653767 98.5429672,67.8105822 L98.5429672,44.3530479 C98.5429672,44.1003082 98.456745,43.9092123 98.2884063,43.7797603 C98.1190413,43.6513356 97.9116974,43.6081849 97.6663746,43.652363 L88.5381101,45.2622945 C88.2897079,45.3064726 88.0844169,45.4215411 87.9150519,45.6105822 C87.7456868,45.7985959 87.6615175,46.0205137 87.6615175,46.2732534 L87.6615175,69.7307877 C87.6615175,70.3338699 87.3689778,70.6862671 86.7859513,70.7900342 L80.4219302,71.9119521 C79.8389037,72.0157192 79.546364,71.7660616 79.546364,71.1629795 L79.546364,39.6650342 C79.546364,39.0629795 79.8389037,38.7085274 80.4219302,38.6057877 L96.1461947,35.8307877 L89.156036,28.7016781 L89.156036,20.5667466 C89.156036,20.3057877 89.0893164,20.1249658 88.9692212,20.0088699 L88.9702476,20.0088699 L69.9993058,0.0886643836 L69.9921206,0.0814726027 L69.9798032,0.0681164384 L69.9808296,0.0722260274 C69.9520889,0.0444863014 69.9233481,0.0198287671 69.8894751,-0.000719178082 C69.9572212,0.122568493 70.0034116,0.272568493 70.0034116,0.477020548 L70.0034116,23.9345548 C70.0034116,24.1883219 70.087581,24.3804452 70.256946,24.5088699 C70.4252847,24.6383219 70.633655,24.6794178 70.8789778,24.6362671 L82.6832106,22.5527055 C82.9285333,22.5095548 83.1276656,22.5629795 83.2816339,22.7098973 C83.4356021,22.8568151 83.5125862,23.0571575 83.5125862,23.3109247 L83.5125862,29.5914041 C83.5125862,29.8461986 83.4356021,30.0742808 83.2816339,30.2746233 C83.1276656,30.4759932 82.9285333,30.5992808 82.6832106,30.6414041 L62.7658772,34.1571575 C62.1807979,34.2609247 61.8903111,34.0112671 61.8903111,33.4081849 L61.8903111,21.8725685 C61.8646497,21.8304452 61.8030624,21.762637 61.8030624,21.762637 L43.8565228,4.68113014 L43.8554963,4.68113014 L43.8524169,4.67804795 L43.8524169,4.67907534 C43.8195704,4.64722603 43.782618,4.6194863 43.7405333,4.59893836 C43.8134116,4.72428082 43.8637079,4.87633562 43.8637079,5.09003425 L43.8637079,28.5475685 C43.8637079,28.8013356 43.9478772,28.9934589 44.1172423,29.1218836 C44.285581,29.2513356 44.4929249,29.2934589 44.7403005,29.2492808 L56.541454,27.1667466 C56.7878032,27.1235959 56.9879619,27.1759932 57.1419302,27.322911 C57.2958984,27.4708562 57.3718561,27.6711986 57.3718561,27.9239384 L57.3718561,34.2044178 C57.3718561,34.4592123 57.2958984,34.6872945 57.1419302,34.887637 C56.9879619,35.0900342 56.7878032,35.2122945 56.541454,35.2554452 L36.6251471,38.7711986 C36.0410942,38.8739384 35.749581,38.6242808 35.749581,38.0211986 L35.749581,16.747911 C35.749581,16.747911 27.0975915,9.02496575 27.0914328,9.02085616 C27.076036,9.0064726 27.0575598,8.99619863 27.0401101,8.98489726 C27.4383746,9.36708904 27.7688931,9.83044521 28.0265333,10.3842123 C28.3200995,11.0140068 28.4658561,11.7105822 28.4658561,12.4708562 L28.4658561,39.3064726 C28.4658561,39.5612671 28.3806603,39.7903767 28.2123217,39.9938014 C28.0419302,40.1982534 27.8356127,40.3215411 27.5902899,40.3646918 L21.1811048,41.4958562 C20.9337291,41.5400342 20.7274116,41.4896918 20.559073,41.3438014 C20.3897079,41.2009932 20.3055386,41.0016781 20.3055386,40.7458562 L20.3055386,32.2297603 C20.3055386,31.9759932 20.2285545,31.7756507 20.0745862,31.6277055 C19.920618,31.4818151 19.7204593,31.4294178 19.4741101,31.4725685 L10.3458455,33.0835274 C10.1005228,33.1266781 9.89215238,33.2520205 9.72381376,33.4554452 C9.55342222,33.6598973 9.47027937,33.8890068 9.47027937,34.142774 L9.47027937,42.6588699 C9.47027937,43.2619521 9.17773968,43.6143493 8.59471323,43.7181164 L2.23274497,44.8410616 C2.03155979,44.8759932 1.87861799,44.8544178 1.74620529,44.8071575 C1.77289312,44.842089 1.80573968,44.8718836 1.84063915,44.8985959 L1.83755979,44.8985959 L1.84782434,44.9057877 L1.84987725,44.9068151 C1.84987725,44.9068151 10.0594646,50.9304452 10.1036021,50.9643493 C10.1692952,51.0136644 10.231909,50.9941438 10.231909,50.9941438 L23.3489778,48.6794178 C23.5943005,48.6352397 23.800618,48.6866096 23.9699831,48.8314726 C24.1383217,48.9763356 24.2235175,49.1756507 24.2235175,49.4294178 L24.2235175,55.7088699 C24.2235175,55.9636644 24.1383217,56.192774 23.9699831,56.3961986 C23.800618,56.6006507 23.5943005,56.7239384 23.3489778,56.7681164 L16.8012212,57.922911 C16.5558984,57.967089 16.347528,58.0821575 16.178163,58.2711986 C16.0087979,58.4602397 15.9246286,58.6811301 15.9246286,58.9348973 L15.9246286,82.3924315 C15.9246286,82.6461986 15.8486709,82.8732534 15.6947026,83.0746233 C15.5397079,83.2770205 15.3405757,83.3992808 15.0962794,83.4424315 L8.68709418,84.5735959 C8.53312593,84.6003082 8.39660741,84.5859247 8.27445926,84.5407192 C8.27959153,84.5499658 8.28472381,84.5592123 8.2939619,84.5664041 L17.6747344,90.5438014 C17.730163,90.5910616 17.7948296,90.612637 17.8564169,90.6383219 L23.0256444,89.7259932 C23.7626392,89.5955137 24.461655,89.6242808 25.1226921,89.8081849 C25.7837291,89.9941438 26.3523852,90.2890068 26.8276339,90.6968836 C27.303909,91.1057877 27.6888296,91.6235959 27.9813693,92.2544178 C28.2728825,92.8852397 28.4186392,93.5807877 28.4186392,94.3410616 L28.4186392,116.515377 C28.4186392,117.275651 28.2728825,118.022568 27.9813693,118.75613 C27.6888296,119.490719 27.303909,120.154418 26.8276339,120.745171 C26.3523852,121.335925 25.7837291,121.832158 25.1226921,122.234897 C24.461655,122.63661 23.7626392,122.902705 23.0256444,123.033185 L6.70500952,125.914007 C5.9659619,126.044486 5.26797249,126.023938 4.60693545,125.855445 C4.31850159,125.781473 4.05367619,125.674623 3.79808889,125.552363 C3.87404656,125.594486 26.8779302,137.494829 26.9569672,137.532842 C27.2607979,137.701336 27.5831048,137.842089 27.9382582,137.9325 C28.5572106,138.090719 29.2120889,138.11024 29.9028931,137.987979 L45.1806497,135.292089 C45.8704275,135.169829 46.5253058,134.920171 47.1432317,134.543116 C47.7621841,134.167089 48.2949143,133.702705 48.7403958,133.148938 C49.1869037,132.595171 49.546163,131.974623 49.8202265,131.287295 C50.0932635,130.600993 50.2287556,129.901336 50.2287556,129.188322 L50.2287556,128.884212 C50.2492847,128.901678 57.2753693,132.991747 57.2753693,132.991747 L57.2763958,132.990719 C57.407782,133.074966 57.5884381,133.101678 57.8255492,133.059555 L63.7810413,132.009555 C64.3271153,131.912979 64.6011788,131.582158 64.6011788,131.018116 L64.6011788,123.712295 C64.6011788,123.475993 64.6802159,123.268459 64.8382899,123.091747 C64.996364,122.916062 65.190364,122.807158 65.4213164,122.766062 L75.0443323,121.067774 C75.736163,120.945514 76.3900148,120.689692 77.0089672,120.298253 C77.0264169,120.286952 77.0397608,120.273596 77.0572106,120.262295 C77.0613164,120.264349 77.0654222,120.267432 77.069528,120.269486 L77.2563429,120.393801 C77.2573693,120.394829 77.2594222,120.395856 77.2604487,120.396884 C77.2614751,120.396884 77.2625016,120.397911 77.2625016,120.397911 L87.0364063,126.892089 C87.3505016,127.073938 87.6840995,127.227021 88.0567026,127.322568 C88.6746286,127.480788 89.3295069,127.500308 90.0203111,127.378048 L107.239094,124.339007 C107.470047,124.298938 107.66302,124.181815 107.822121,123.990719 C107.980195,123.799623 108.060258,123.585925 108.060258,123.347568 L108.060258,117.371199 C108.080787,117.390719 115.218756,122.779418 115.218756,122.779418 C115.348089,122.85339 115.519507,122.878048 115.742248,122.837979 L121.69774,121.786952 C122.243814,121.691404 122.517877,121.360582 122.517877,120.796541 L122.517877,110.982842 L131.798057,118.636952 C131.824745,118.662637 131.858618,118.675993 131.890438,118.691404 L131.890438,72.4020205 C131.890438,71.2338699 132.808089,70.1242808 133.940269,69.9249658 L179.071443,61.9595548 C180.203623,61.7602397 181.121274,62.5441438 181.121274,63.7133219 L181.121274,110.317089 C181.121274,111.486267 180.203623,112.594829 179.071443,112.794144 L133.940269,120.759555 C133.613856,120.818116 133.30592,120.791404 133.031856,120.699966 C133.058544,120.720514 133.084205,120.744144 133.110893,120.764692 C133.134502,120.786267 133.15811,120.802705 133.182745,120.823253 L147.736851,132.766747 L147.737877,132.763664 C148.082766,133.054418 148.55083,133.193116 149.073295,133.101678 L191.187719,125.669486 C192.243941,125.4825 193.100004,124.446884 193.100004,123.357842 L193.100004,79.8701712 C193.100004,79.4746233 192.982988,79.1304452 192.786935,78.8571575 Z M130.338438,124.08113 L128.787465,124.354418 L128.787465,121.825993 L127.237517,122.100308 L127.237517,128.672568 L128.787465,128.398253 L128.787465,125.736267 L130.338438,125.461952 L130.338438,128.123938 L131.890438,127.850651 L131.890438,121.279418 L130.338438,121.553733 L130.338438,124.08113 Z M121.318978,123.145171 L119.768004,123.418459 L119.768004,129.990719 L121.318978,129.716404 L121.318978,123.145171 Z M122.983888,134.729075 C122.983888,135.866404 122.82992,136.61024 122.094978,136.739692 L122.012861,136.755103 C121.27792,136.884555 121.122925,136.195171 121.122925,135.057842 L121.122925,134.720856 C121.122925,133.583527 121.27792,132.839692 122.012861,132.71024 L122.094978,132.696884 C122.82992,132.566404 122.983888,133.25476 122.983888,134.393116 L122.983888,134.729075 Z M122.05392,131.322226 C120.33974,131.624281 119.548343,132.724623 119.548343,134.999281 L119.548343,135.336267 C119.548343,137.610925 120.33974,138.431815 122.05392,138.12976 C123.768099,137.826678 124.559496,136.726336 124.559496,134.451678 L124.559496,134.113664 C124.559496,131.840034 123.768099,131.019144 122.05392,131.322226 Z M128.665316,134.064349 L127.751771,130.433527 L125.441221,130.841404 L125.441221,137.412637 L126.991168,137.139349 L126.991168,134.611952 L126.951137,133.355445 L127.865708,136.98524 L129.465951,136.702705 L130.379496,132.750308 L130.338438,134.021199 L130.338438,136.549623 L131.890438,136.275308 L131.890438,129.703048 L129.579888,130.110925 L128.665316,134.064349 Z M116.91138,128.287295 L116.193888,124.049281 L114.283655,124.387295 L113.56411,128.878048 L113.075517,124.599966 L111.458851,124.885582 L112.470935,131.278048 L114.43865,130.930788 L115.238258,126.05476 L116.030681,130.649281 L118.006607,130.300993 L119.017666,123.550993 L117.402025,123.835582 L116.91138,128.287295 Z M126.502576,122.22976 L122.093951,123.008527 L122.093951,124.390377 L123.523803,124.137637 L123.523803,129.327021 L125.07375,129.053733 L125.07375,123.864349 L126.502576,123.61161 L126.502576,122.22976 Z M81.3549778,141.242774 C80.4978878,141.275651 80.367528,141.096884 80.367528,140.693116 L80.367528,140.659212 C80.367528,140.321199 80.5871894,140.021199 81.0367767,139.942089 L81.1178667,139.928733 C81.6906286,139.827021 81.8938667,140.145514 81.8938667,140.886267 L83.4448402,140.612979 L83.4448402,140.436267 C83.4448402,138.843801 82.7263217,138.262295 81.1178667,138.545856 C79.5833164,138.817089 78.7908931,139.757158 78.7908931,140.978733 L78.7908931,141.071199 C78.7908931,142.360582 79.4940148,142.691404 80.881782,142.640034 C81.738872,142.607158 81.9102899,142.80339 81.9102899,143.183527 L81.9102899,143.217432 C81.9102899,143.536952 81.6906286,143.870856 81.1589249,143.964349 L81.0778349,143.978733 C80.5461312,144.073253 80.3018349,143.828733 80.3018349,143.104418 L78.7508614,143.378733 L78.7508614,143.45476 C78.7508614,145.105788 79.5668931,145.626678 81.1178667,145.35339 C82.6780783,145.078048 83.4858984,144.186267 83.4858984,142.896884 L83.4858984,142.80339 C83.4858984,141.515034 82.742745,141.191404 81.3549778,141.242774 Z M60.4183746,145.771541 C60.4183746,146.90887 60.2633799,147.652705 59.5284381,147.782158 L59.4473481,147.796541 C58.7124063,147.927021 58.5574116,147.237637 58.5574116,146.100308 L58.5574116,145.763322 C58.5574116,144.625993 58.7124063,143.882158 59.4473481,143.752705 L59.5284381,143.738322 C60.2633799,143.60887 60.4183746,144.297226 60.4183746,145.434555 L60.4183746,145.771541 Z M59.4873799,142.363664 C57.7732,142.666747 56.9807767,143.767089 56.9807767,146.041747 L56.9807767,146.378733 C56.9807767,148.65339 57.7732,149.474281 59.4873799,149.171199 C61.2025862,148.869144 61.9939831,147.767774 61.9939831,145.494144 L61.9939831,145.15613 C61.9939831,142.8825 61.2025862,142.06161 59.4873799,142.363664 Z M67.6672,134.804075 C67.6672,135.428733 67.3079407,135.608527 67.0051365,135.661952 L66.2958561,135.787295 L66.2958561,134.237979 L67.0051365,134.11161 C67.3079407,134.059212 67.6672,134.113664 67.6672,134.737295 L67.6672,134.804075 Z M68.2543323,136.605103 C68.8178561,136.244486 69.2335704,135.648596 69.2335704,134.579075 L69.2335704,134.409555 C69.2335704,132.590034 68.0172212,132.552021 66.9404698,132.742089 L64.7438561,133.129418 L64.7438561,139.701678 L66.2958561,139.427363 L66.2958561,137.170171 L66.7279937,137.093116 L67.5604487,139.20339 L69.2335704,138.908527 L68.2543323,136.605103 Z M57.0793164,136.673938 C57.0793164,137.296541 56.7210836,137.47839 56.4193058,137.531815 L55.7079725,137.657158 L55.7079725,136.106815 L56.4193058,135.981473 C56.7210836,135.928048 57.0793164,135.9825 57.0793164,136.605103 L57.0793164,136.673938 Z M58.6467132,136.446884 L58.6467132,136.27839 C58.6467132,134.457842 57.430364,134.419829 56.3525862,134.610925 L54.1569989,134.998253 L54.1569989,141.569486 L55.7079725,141.296199 L55.7079725,139.037979 L56.3525862,138.923938 C57.430364,138.73387 58.6467132,138.266404 58.6467132,136.446884 Z M61.0865968,137.633527 L61.4787026,135.56024 L61.8708085,137.494829 L61.0865968,137.633527 Z M62.5400571,133.518801 L60.4173481,133.893801 L58.9002476,140.733185 L60.5651577,140.439349 L60.8176656,139.063664 L62.1407661,138.829418 L62.4014857,140.114692 L64.0592106,139.821884 L62.5400571,133.518801 Z M65.7969989,143.558527 C65.7969989,144.182158 65.4387661,144.364007 65.1359619,144.417432 L64.425655,144.542774 L64.425655,142.991404 L65.1359619,142.867089 C65.4387661,142.812637 65.7969989,142.868116 65.7969989,143.490719 L65.7969989,143.558527 Z M65.0702688,141.496541 L62.8757079,141.88387 L62.8757079,148.455103 L64.425655,148.181815 L64.425655,145.924623 L65.0702688,145.809555 C66.1480466,145.620514 67.3654222,145.153048 67.3654222,143.3325 L67.3654222,143.164007 C67.3654222,141.344486 66.1480466,141.305445 65.0702688,141.496541 Z M20.3055386,15.8150342 L9.47027937,17.7270205 L9.47027937,26.1013356 L20.3055386,24.1883219 L20.3055386,15.8150342 Z M43.8719196,143.384897 L45.4239196,143.110582 L45.4239196,136.540377 L43.8719196,136.812637 L43.8719196,143.384897 Z M49.8315175,138.120514 L49.8725757,139.377021 L48.1173376,136.064692 L46.4842476,136.352363 L46.4842476,142.924623 L47.9541312,142.664692 L47.9541312,140.305788 L47.9120466,139.049281 L49.6672847,142.362637 L51.3003746,142.073938 L51.3003746,135.502705 L49.8315175,135.76161 L49.8315175,138.120514 Z M7.81152804,60.3660616 C7.81152804,60.1133219 7.73351746,59.9211986 7.58057566,59.7886644 C7.42558095,59.6581849 7.22644868,59.6140068 6.98112593,59.6571575 L0.434395767,60.8119521 C0.269136508,60.8407192 0.129538624,60.8129795 0.000205291005,60.7575 C0.0176550265,60.7780479 0.0258666667,60.8027055 0.0463957672,60.8211986 C0.0628190476,60.8345548 7.79818413,66.1400342 7.81152804,66.1492808 L7.81152804,60.3660616 Z M87.6409884,140.967432 C87.6409884,142.10476 87.4849672,142.847568 86.7500254,142.978048 L86.6689354,142.992432 C85.9339937,143.121884 85.7789989,142.433527 85.7789989,141.296199 L85.7789989,140.959212 C85.7789989,139.821884 85.9339937,139.077021 86.6689354,138.947568 L86.7500254,138.934212 C87.4849672,138.80476 87.6409884,139.493116 87.6409884,140.630445 L87.6409884,140.967432 Z M86.7089672,137.559555 C84.9947873,137.86161 84.2033905,138.961952 84.2033905,141.23661 L84.2033905,141.573596 C84.2033905,143.848253 84.9947873,144.669144 86.7089672,144.367089 C88.4241735,144.064007 89.2165968,142.964692 89.2165968,140.689007 L89.2165968,140.353048 C89.2165968,138.077363 88.4241735,137.256473 86.7089672,137.559555 Z M79.6654328,130.496199 L78.1955492,130.75613 L78.1955492,133.115034 L78.2366074,134.370514 L76.4813693,131.058185 L74.8493058,131.345856 L74.8493058,137.918116 L76.318163,137.659212 L76.318163,135.300308 L76.2781312,134.042774 L78.0333693,137.35613 L79.6654328,137.067432 L79.6654328,130.496199 Z M84.6858243,130.991404 L84.6858243,129.610582 L80.6857291,130.316404 L80.6857291,136.888664 L84.6858243,136.181815 L84.6858243,134.799966 L82.2367026,135.2325 L82.2367026,133.951336 L84.2772952,133.591747 L84.2772952,132.209897 L82.2367026,132.569486 L82.2367026,131.423938 L84.6858243,130.991404 Z M76.4249143,141.852021 L76.4659725,143.1075 L74.7107344,139.795171 L73.0776444,140.082842 L73.0776444,146.654075 L74.547528,146.395171 L74.547528,144.036267 L74.5074963,142.77976 L76.2627344,146.093116 L77.8937714,145.804418 L77.8937714,139.233185 L76.4249143,139.493116 L76.4249143,141.852021 Z M68.1403958,147.526336 L72.1394646,146.820514 L72.1394646,145.438664 L69.6903429,145.871199 L69.6903429,144.591062 L71.7319619,144.230445 L71.7319619,142.847568 L69.6903429,143.208185 L69.6903429,142.062637 L72.1394646,141.63113 L72.1394646,140.248253 L68.1403958,140.955103 L68.1403958,147.526336 Z M74.1153905,131.476336 L69.7067661,132.254075 L69.7067661,133.635925 L71.1355915,133.383185 L71.1355915,138.572568 L72.6865651,138.300308 L72.6865651,133.109897 L74.1153905,132.858185 L74.1153905,131.476336 Z M162.542438,102.526336 C162.542438,101.471199 163.085433,100.837295 164.087253,100.660582 L164.295623,100.623596 C165.297443,100.446884 165.840438,100.889692 165.840438,101.944829 L165.840438,102.160582 C165.840438,103.453048 165.109602,104.119829 164.295623,104.264692 L164.087253,104.300651 C163.272248,104.444486 162.542438,104.034555 162.542438,102.742089 L162.542438,102.526336 Z M162.647137,95.6150342 C162.647137,94.7314726 163.272248,94.0184589 164.087253,93.8746233 L164.295623,93.837637 C165.109602,93.6948288 165.736766,94.1869521 165.736766,95.0694863 L165.736766,95.2852397 C165.736766,96.3414041 165.23483,96.9681164 164.23301,97.1448288 L164.149867,97.1592123 C163.148047,97.3369521 162.647137,96.8859247 162.647137,95.8307877 L162.647137,95.6150342 Z M158.660385,103.470514 L158.660385,103.900993 C158.660385,105.861267 160.037888,108.505788 164.191951,107.772226 C168.344988,107.038664 169.722491,103.909212 169.722491,101.948938 L169.722491,101.518459 C169.722491,99.7307877 168.887983,98.7136644 167.865634,98.2277055 C168.845898,97.3646918 169.618819,96.087637 169.618819,94.3410616 L169.618819,93.9116096 C169.618819,92.0581849 168.344988,89.6325 164.191951,90.3660616 C160.037888,91.0996233 158.765084,93.9732534 158.765084,95.8266781 L158.765084,96.2571575 C158.765084,98.0027055 159.536978,99.0075 160.518269,99.5232534 C159.474364,100.375993 158.660385,101.682842 158.660385,103.470514 Z M150.688935,80.7989384 L144.63593,88.8249658 L144.63593,91.3451712 L155.489666,89.4301027 L155.489666,85.9410616 L151.52447,86.6396918 L150.062798,86.9201712 L153.673867,82.1458562 C154.82247,80.6294178 155.489666,79.5218836 155.489666,77.4742808 L155.489666,77.0438014 C155.489666,74.9756507 154.216861,72.5509932 150.062798,73.2835274 C146.389115,73.9318151 144.63593,76.0513356 144.63593,79.7345548 L144.63593,80.1434589 L148.517983,79.4581849 C148.517983,77.627363 149.145147,76.9359247 149.959126,76.792089 L150.167496,76.7551027 C150.981475,76.6122945 151.607613,77.1033904 151.607613,78.4821575 L151.607613,78.697911 C151.607613,79.5383219 151.274015,80.0489384 150.688935,80.7989384 Z M162.647137,75.9578425 C162.647137,75.0527055 163.168576,74.3140068 164.149867,74.1414041 L164.23301,74.1270205 C165.214301,73.9544178 165.736766,74.5081849 165.736766,75.4122945 L165.736766,82.7366096 C165.736766,83.6407192 165.214301,84.3794178 164.23301,84.5530479 L164.149867,84.5674315 C163.168576,84.7410616 162.647137,84.1862671 162.647137,83.2821575 L162.647137,75.9578425 Z M164.191951,88.0492808 C167.740406,87.4235959 169.618819,84.9598973 169.618819,82.0513356 L169.618819,74.7270205 C169.618819,71.8194863 167.740406,70.0184589 164.191951,70.6441438 C160.643496,71.2698288 158.765084,73.7355822 158.765084,76.6431164 L158.765084,83.9674315 C158.765084,86.8749658 160.643496,88.6759932 164.191951,88.0492808 Z M146.272099,100.397568 L148.48411,98.477363 L148.48411,106.879418 L145.102967,107.476336 L145.102967,110.965377 L155.747306,109.086267 L155.747306,105.597226 L152.366163,106.194144 L152.366163,92.8811301 L149.444872,93.3968836 L144.372131,97.8465411 L146.272099,100.397568 Z" id="Fill-1"></path>
            </g>
        </g>
    </g>
</svg>