<?xml version="1.0" encoding="UTF-8"?>
<svg width="30px" height="30px" viewBox="0 0 30 30" version="1.1" xmlns="http://www.w3.org/2000/svg" xmlns:xlink="http://www.w3.org/1999/xlink">
    <!-- Generator: Sketch 52.2 (67145) - http://www.bohemiancoding.com/sketch -->
    <title>Shape</title>
    <desc>Created with Sketch.</desc>
    <g id="Page-1" stroke="none" stroke-width="1" fill="none" fill-rule="evenodd">
        <g id="v3-circle" transform="translate(-576.000000, -468.000000)" fill="#E5E2D4" fill-rule="nonzero">
            <path d="M591.042,468.927 C583.083,468.927 576.632,475.378 576.632,483.335 C576.632,491.292 583.083,497.743 591.042,497.743 C598.999,497.743 605.45,491.292 605.45,483.335 C605.45,475.378 598.999,468.927 591.042,468.927 Z M582.831,489.946 L583.292,487.534 C583.296,486.825 583.796,486.809 584.394,486.571 L587.185,485.462 C587.227,485.446 587.269,485.429 587.31,485.409 L587.313,485.397 L587.32,485.37 L587.328,485.343 C587.857,485.105 588.314,484.777 588.453,484.548 C588.545,484.396 588.647,484.337 588.724,484.403 C588.738,484.405 588.75,484.413 588.758,484.423 C588.838,484.187 588.916,483.95 588.994,483.714 C589.02,483.622 589.076,483.667 589.103,483.737 L589.042,483.495 L589.007,483.061 C588.952,483.004 588.909,482.956 588.88,482.924 C588.696,482.717 588.685,482.172 588.594,482.039 C588.501,481.906 588.32,481.877 588.138,481.258 C587.956,480.641 587.734,479.756 587.968,479.74 C587.989,479.74 588.013,479.744 588.036,479.754 C588.021,479.668 588.003,479.666 587.984,479.545 C587.95,479.315 587.813,478.934 587.801,478.709 C587.776,478.209 587.903,476.795 588.189,476.322 C588.476,475.851 588.922,475.453 589.564,475.31 C590.126,475.185 591.784,475.078 592.309,475.31 C592.485,475.386 592.702,475.499 592.918,475.638 C593.278,475.865 593.642,476.156 593.82,476.45 C594.107,476.921 594.191,478.208 594.166,478.708 C594.145,479.089 594.059,479.604 594.018,479.831 C594.084,479.772 594.151,479.735 594.207,479.739 C594.442,479.755 594.221,480.639 594.037,481.257 C593.855,481.876 593.674,481.905 593.582,482.038 C593.492,482.171 593.478,482.716 593.297,482.923 C593.268,482.954 593.227,482.999 593.176,483.054 L593.144,483.585 C593.125,483.878 593.204,483.606 593.233,483.712 C593.253,483.769 593.376,484.153 593.452,484.357 C593.483,484.439 593.469,484.482 593.544,484.443 L593.548,484.439 L593.55,484.439 L593.553,484.437 L593.554,484.437 L593.556,484.437 L593.56,484.435 C593.622,484.414 593.698,484.464 593.772,484.574 L593.773,484.576 L593.778,484.582 L593.78,484.586 L593.787,484.596 C593.795,484.61 593.805,484.625 593.813,484.639 L593.815,484.643 L593.822,484.649 C593.982,484.868 594.42,485.178 594.916,485.401 L594.916,485.403 C594.965,485.423 595.013,485.444 595.061,485.462 L597.851,486.571 C598.449,486.809 598.949,486.825 598.952,487.534 L599.574,489.946 L582.831,489.946 Z" id="Shape"></path>
        </g>
    </g>
</svg>