<?xml version="1.0" encoding="UTF-8"?>
<svg width="30px" height="29px" viewBox="0 0 30 29" version="1.1" xmlns="http://www.w3.org/2000/svg" xmlns:xlink="http://www.w3.org/1999/xlink">
    <!-- Generator: Sketch 52.2 (67145) - http://www.bohemiancoding.com/sketch -->
    <title>Shape</title>
    <desc>Created with Sketch.</desc>
    <g id="Page-1" stroke="none" stroke-width="1" fill="none" fill-rule="evenodd">
        <g id="v3-circle" transform="translate(-792.000000, -145.000000)" fill="#E5E2D4" fill-rule="nonzero">
            <path d="M807.173,145.206 C799.255,145.206 792.835,151.626 792.835,159.544 C792.835,167.462 799.255,173.882 807.173,173.882 C814.392,173.882 820.362,168.545 821.362,161.602 C821.458,161.128 821.503,160.64 821.495,160.137 C821.505,159.94 821.511,159.742 821.511,159.544 C821.511,151.626 815.091,145.206 807.173,145.206 Z M817.374,160.604 C817.409,160.615 817.429,160.652 817.419,160.687 C817.409,160.715 817.384,160.734 817.357,160.734 C817.349,160.734 817.343,160.734 817.336,160.732 C815.596,160.2 813.445,160.127 812.729,160.102 C812.174,161.32 811.102,161.859 809.415,162.111 L809.415,162.112 C809.208,162.142 808.991,162.17 808.767,162.193 C809.437,162.615 809.628,163.144 809.628,164.572 C809.628,166.001 809.608,166.193 809.612,166.521 C809.62,167.06 810.411,167.32 810.382,167.493 C810.351,167.666 809.72,167.639 809.425,167.536 C808.587,167.243 808.671,166.547 808.671,166.547 L808.644,164.637 C808.644,164.637 808.701,163.608 808.318,163.608 L808.318,166.737 C808.318,167.417 808.798,167.624 808.798,167.875 C808.798,168.308 807.925,167.834 807.659,167.563 C807.251,167.154 807.298,166.284 807.305,165.598 C807.315,164.934 807.299,163.481 807.299,163.481 L807.024,163.487 C807.024,163.487 807.137,166.66 806.878,167.237 C806.542,167.979 805.528,168.235 805.528,167.895 C805.528,167.668 805.776,167.742 805.915,167.231 C806.034,166.798 805.993,163.565 805.993,163.565 C805.993,163.565 805.669,163.756 805.669,164.363 C805.669,164.639 805.661,166.223 805.661,166.694 C805.661,167.288 804.819,167.625 804.415,167.625 C804.21,167.625 803.954,167.615 803.954,167.506 C803.954,167.232 804.724,167.071 804.724,166.501 C804.724,166.006 804.714,164.733 804.714,164.733 C804.714,164.733 804.325,164.799 803.773,164.799 C802.377,164.799 801.933,163.909 801.724,163.41 C801.451,162.762 801.095,162.456 800.72,162.212 C800.488,162.063 800.435,161.887 800.702,161.835 C801.938,161.604 802.255,163.237 803.079,163.498 C803.669,163.684 804.425,163.603 804.802,163.359 C804.851,162.859 805.212,162.427 805.511,162.201 C805.493,162.199 805.474,162.197 805.454,162.195 C803.39,161.986 802.161,161.258 801.522,160.098 C799.327,160.151 798.081,160.462 797.167,160.691 C797.103,160.708 797.036,160.724 796.974,160.74 C796.968,160.741 796.962,160.742 796.958,160.742 C796.927,160.742 796.901,160.722 796.894,160.691 C796.884,160.656 796.908,160.619 796.943,160.61 C797.004,160.594 797.07,160.579 797.136,160.563 C798.046,160.334 799.284,160.024 801.454,159.966 C801.393,159.846 801.339,159.723 801.29,159.594 C800.448,159.587 797.849,159.707 796.958,159.927 C796.952,159.93 796.946,159.93 796.942,159.93 C796.911,159.93 796.883,159.909 796.876,159.879 C796.868,159.843 796.89,159.807 796.925,159.797 C797.808,159.58 800.345,159.459 801.243,159.461 C801.042,158.866 800.952,158.186 800.952,157.424 C800.952,156.073 801.372,155.565 801.938,154.843 C801.504,153.303 802.092,152.251 802.092,152.251 C802.092,152.251 803,152.063 804.717,153.292 C805.649,152.895 808.129,152.859 809.305,153.204 C810.026,152.726 811.344,152.052 811.875,152.241 C812.02,152.473 812.33,153.148 812.064,154.633 C812.244,154.959 813.183,155.653 813.185,157.613 C813.171,158.336 813.095,158.947 812.956,159.463 C815.194,159.445 816.511,159.63 817.419,159.796 C817.454,159.805 817.48,159.838 817.474,159.875 C817.466,159.906 817.439,159.93 817.408,159.93 C817.404,159.93 817.398,159.93 817.396,159.928 C816.488,159.761 815.171,159.576 812.917,159.598 C812.878,159.729 812.833,159.852 812.784,159.973 C813.552,159.998 815.659,160.08 817.374,160.604 Z" id="Shape"></path>
        </g>
    </g>
</svg>