<?xml version="1.0" encoding="UTF-8"?>
<svg width="30px" height="30px" viewBox="0 0 30 30" version="1.1" xmlns="http://www.w3.org/2000/svg" xmlns:xlink="http://www.w3.org/1999/xlink">
    <!-- Generator: Sketch 52.2 (67145) - http://www.bohemiancoding.com/sketch -->
    <title>Group</title>
    <desc>Created with Sketch.</desc>
    <g id="Page-1" stroke="none" stroke-width="1" fill="none" fill-rule="evenodd">
        <g id="v3-circle" transform="translate(-432.000000, -217.000000)" fill="#E5E2D4">
            <g id="Group" transform="translate(432.000000, 217.000000)">
                <rect id="Rectangle" x="10.762" y="7.905" width="1" height="3.137"></rect>
                <path d="M8.153,8.835 L8.153,11.042 L8.657,11.042 L8.657,7.991 C8.361,8.14 8.153,8.462 8.153,8.835 Z" id="Path"></path>
                <path d="M19.314,10.926 L20.707,10.926 C21.228,10.926 21.654,10.499 21.654,9.979 L21.654,8.968 C21.654,8.447 21.228,8.021 20.707,8.021 L19.314,8.021 C18.793,8.021 18.367,8.447 18.367,8.968 L18.367,9.979 C18.367,10.499 18.793,10.926 19.314,10.926 Z" id="Path"></path>
                <rect id="Rectangle" x="9.023" y="7.905" width="1" height="3.137"></rect>
                <rect id="Rectangle" x="9.893" y="7.905" width="1" height="3.137"></rect>
                <path d="M14.978,0.354 C7.039,0.354 0.603,6.791 0.603,14.729 C0.603,22.667 7.039,29.104 14.978,29.104 C22.917,29.104 29.353,22.667 29.353,14.729 C29.353,6.791 22.917,0.354 14.978,0.354 Z M7.414,8.501 C7.414,7.767 8.014,7.165 8.75,7.165 L21.206,7.165 C21.941,7.165 22.541,7.767 22.541,8.501 L22.541,11.624 L17.858,11.624 C17.198,10.755 16.154,10.191 14.977,10.191 C13.8,10.191 12.757,10.754 12.097,11.624 L7.413,11.624 L7.413,8.501 L7.414,8.501 Z M18.147,13.802 C18.147,15.55 16.725,16.973 14.977,16.973 C13.229,16.973 11.808,15.55 11.808,13.802 C11.808,12.056 13.229,10.634 14.977,10.634 C16.725,10.634 18.147,12.056 18.147,13.802 Z M22.542,20.958 C22.542,21.692 21.941,22.293 21.207,22.293 L8.749,22.293 C8.015,22.293 7.414,21.692 7.414,20.958 L7.414,12.161 L11.761,12.161 C11.51,12.655 11.367,13.212 11.367,13.803 C11.367,15.797 12.984,17.413 14.978,17.413 C16.971,17.413 18.588,15.797 18.588,13.803 C18.588,13.212 18.444,12.656 18.192,12.161 L22.541,12.161 L22.541,20.958 L22.542,20.958 Z" id="Shape" fill-rule="nonzero"></path>
                <circle id="Oval" cx="14.978" cy="13.803" r="2.587"></circle>
            </g>
        </g>
    </g>
</svg>