<?xml version="1.0" encoding="UTF-8"?>
<svg width="30px" height="29px" viewBox="0 0 30 29" version="1.1" xmlns="http://www.w3.org/2000/svg" xmlns:xlink="http://www.w3.org/1999/xlink">
    <!-- Generator: Sketch 52.2 (67145) - http://www.bohemiancoding.com/sketch -->
    <title>Group</title>
    <desc>Created with Sketch.</desc>
    <g id="Page-1" stroke="none" stroke-width="1" fill="none" fill-rule="evenodd">
        <g id="v3-circle" transform="translate(-540.000000, -217.000000)" fill="#E5E2D4">
            <g id="Group" transform="translate(540.000000, 217.000000)">
                <rect id="Rectangle" x="10.515" y="13.076" width="2.031" height="6.108"></rect>
                <path d="M11.544,10.133 C10.849,10.133 10.396,10.59 10.396,11.188 C10.396,11.775 10.837,12.244 11.517,12.244 L11.531,12.244 C12.24,12.244 12.679,11.775 12.679,11.188 C12.665,10.59 12.239,10.133 11.544,10.133 Z" id="Path"></path>
                <path d="M17.528,12.934 C16.448,12.934 15.966,13.529 15.698,13.946 L15.698,13.963 L15.686,13.963 C15.688,13.958 15.694,13.951 15.698,13.946 L15.698,13.077 L13.669,13.077 C13.694,13.65 13.669,19.184 13.669,19.184 L15.698,19.184 L15.698,15.773 C15.698,15.591 15.71,15.41 15.766,15.278 C15.912,14.913 16.246,14.536 16.807,14.536 C17.541,14.536 17.834,15.096 17.834,15.916 L17.834,19.184 L19.8650007,19.184 L19.865,15.684 C19.866,13.807 18.864,12.934 17.528,12.934 Z" id="Path"></path>
                <path d="M15.192,0.338 C7.299,0.338 0.903,6.734 0.903,14.625 C0.903,22.516 7.299,28.913 15.192,28.913 C23.083,28.913 29.479,22.517 29.479,14.625 C29.479,6.733 23.083,0.338 15.192,0.338 Z M21.911,20.418 C21.911,20.953 21.466,21.387 20.919,21.387 L9.466,21.387 C8.915,21.387 8.472,20.953 8.472,20.418 L8.472,8.832 C8.472,8.297 8.915,7.863 9.466,7.863 L20.919,7.863 C21.466,7.863 21.911,8.297 21.911,8.832 L21.911,20.418 Z" id="Shape" fill-rule="nonzero"></path>
            </g>
        </g>
    </g>
</svg>