<?xml version="1.0" encoding="UTF-8"?>
<svg width="471px" height="51px" viewBox="0 0 471 51" version="1.1" xmlns="http://www.w3.org/2000/svg" xmlns:xlink="http://www.w3.org/1999/xlink">
    <!-- Generator: Sketch 52.2 (67145) - http://www.bohemiancoding.com/sketch -->
    <title>Shape</title>
    <desc>Created with Sketch.</desc>
    <g id="Page-1" stroke="none" stroke-width="1" fill="none" fill-rule="evenodd">
        <g id="mac" fill="#676767" fill-rule="nonzero">
            <path d="M179.5,18.2 C179.5,20.6 175.7,22.5 170.9,22.5 C166.2,22.5 162.3,20.6 162.3,18.2 C162.3,15.8 166.1,13.9 170.9,13.9 C175.6,13.9 179.5,15.9 179.5,18.2 Z M299.8,13.9 C295.1,13.9 291.2,15.8 291.2,18.2 C291.2,20.6 295,22.5 299.8,22.5 C304.6,22.5 308.4,20.6 308.4,18.2 C308.4,15.9 304.6,13.9 299.8,13.9 Z M464.3,40.8 L347.7,40.8 C334,40.8 323,33.9 323,25.8 C323,17.7 334,10.8 347.7,10.8 L464.3,10.8 C467.9,10.8 470.8,8.6 470.8,6 C470.8,3.3 467.9,1.2 464.3,1.2 L347.7,1.2 C328.1,1.2 312.8,12 312.8,25.9 C312.8,30.1 314.1,34 317.2,38.1 L242.1,1.7 C239.9,0.6 237.8,0 235.3,0 C232.8,0 230.8,0.6 228.5,1.7 L151.4,39 L151.4,5.4 C151.4,2.7 147.8,0.6 143.3,0.6 C140.3,0.6 138.5,1.4 138.5,1.4 L63.3,33.2 L69.8,35.9 C71.8,36.7 73.6,37.1 75.8,37.1 C78,37.1 79.8,36.7 81.8,35.9 L141.9,10.4 L141.9,47.6 C141.9,49.4 144.1,50.8 146.7,50.8 L147.1,50.8 C148.3,50.8 149.4,50.5 150.3,50.1 L235.4,9 L274.5,28 L201.9,28 L182.6,37.3 L293.8,37.3 L320.5,50.2 C321.4,50.6 322.5,50.9 323.7,50.9 C326.6,50.9 328.9,49.5 328.9,47.7 C328.9,47.5 328.9,47 328.4,46.4 C333.5,48.7 340,50.5 347.7,50.4 L464.3,50.4 C467.9,50.4 470.8,48.2 470.8,45.6 C470.7,42.9 467.8,40.8 464.3,40.8 Z M72.9,26.8 L12.9,1.4 C12.9,1.4 11,0.6 8.1,0.6 C3.6,0.5 0,2.7 0,5.4 L0,47.8 C0,49.6 2.2,51 4.8,51 C7.5,51 9.6,49.6 9.6,47.8 L9.6,10.5 L60.4,32 L72.9,26.8 Z" id="Shape"></path>
        </g>
    </g>
</svg>