<?xml version="1.0" encoding="UTF-8"?>
<svg width="29px" height="29px" viewBox="0 0 29 29" version="1.1" xmlns="http://www.w3.org/2000/svg" xmlns:xlink="http://www.w3.org/1999/xlink">
    <!-- Generator: Sketch 52.2 (67145) - http://www.bohemiancoding.com/sketch -->
    <title>Shape</title>
    <desc>Created with Sketch.</desc>
    <g id="Page-1" stroke="none" stroke-width="1" fill="none" fill-rule="evenodd">
        <g id="v3-circle" transform="translate(-468.000000, -469.000000)" fill="#E5E2D4" fill-rule="nonzero">
            <path d="M482.816,469.252 C475.038,469.252 468.732,475.557 468.732,483.334 C468.732,491.113 475.038,497.418 482.816,497.418 C490.595,497.418 496.9,491.113 496.9,483.334 C496.9,475.557 490.596,469.252 482.816,469.252 Z M489.376,478.16 L482.638,483.506 L475.899,478.16 L489.376,478.16 Z M475.011,478.873 L479.76,482.641 L475.011,487.389 L475.011,478.873 Z M475.642,488.309 L480.624,483.327 L482.592,484.888 L482.628,484.931 L482.638,484.925 L482.642,484.927 L482.658,484.907 L484.75,483.249 L489.812,488.31 L475.642,488.31 L475.642,488.309 Z M490.558,487.504 L485.615,482.561 L490.558,478.641 L490.558,487.504 Z" id="Shape"></path>
        </g>
    </g>
</svg>