<?xml version="1.0" encoding="UTF-8"?>
<svg width="30px" height="30px" viewBox="0 0 30 30" version="1.1" xmlns="http://www.w3.org/2000/svg" xmlns:xlink="http://www.w3.org/1999/xlink">
    <!-- Generator: Sketch 52.2 (67145) - http://www.bohemiancoding.com/sketch -->
    <title>Shape</title>
    <desc>Created with Sketch.</desc>
    <g id="Page-1" stroke="none" stroke-width="1" fill="none" fill-rule="evenodd">
        <g id="v3-circle" transform="translate(-720.000000, -217.000000)" fill="#E5E2D4">
            <path d="M735.228,217.18 C727.251,217.18 720.783,223.65 720.783,231.626 C720.783,239.604 727.252,246.071 735.228,246.071 C743.207,246.071 749.673,239.604 749.673,231.626 C749.673,223.649 743.206,217.18 735.228,217.18 M742.206,238.149 C741.993,238.149 741.726,238.235 741.429,238.329 C741.029,238.452 740.599,238.587 740.21,238.64 C739.101,235.808 738.263,233.048 737.644,230.207 C737.08,231.186 737.056,232.499 737.037,233.769 C737.014,235.154 736.99,236.587 736.553,237.56 L736.332,237.48 C735.945,237.48 735.607,237.523 735.266,237.57 C734.936,237.613 734.608,237.662 734.237,237.662 C734.092,237.662 733.94,237.652 733.782,237.637 C733.544,237.209 733.237,236.713 732.928,236.215 C732.444,235.428 731.957,234.641 731.403,233.922 C731.223,234.371 731.278,234.717 731.335,235.061 C731.439,235.729 731.538,236.36 731.48,237.168 C731.115,237.354 730.271,237.82 729.316,237.82 C729.168,237.82 729.017,237.808 728.869,237.783 C728.074,235.209 728.139,232.485 728.211,229.326 L728.246,227.484 C728.926,227.29 729.646,227.148 730.445,227.148 C730.627,227.148 730.816,227.154 731.009,227.17 C731.704,228.155 732.32,229.396 732.913,230.593 C733.249,231.275 733.587,231.958 733.958,232.606 C734.624,229.868 735.134,226.81 736.612,224.806 C736.651,224.829 736.725,224.832 736.807,224.832 L736.901,224.832 C737.219,224.832 737.491,224.876 737.762,224.922 C738.047,224.968 738.332,225.014 738.662,225.014 C738.766,225.014 738.875,225.01 738.984,225 C739.912,227.05 740.459,229.729 740.99,232.317 C741.4,234.332 741.828,236.412 742.484,238.227 C742.407,238.174 742.312,238.149 742.206,238.149" id="Shape"></path>
        </g>
    </g>
</svg>