<?xml version="1.0" encoding="UTF-8"?>
<svg width="30px" height="29px" viewBox="0 0 30 29" version="1.1" xmlns="http://www.w3.org/2000/svg" xmlns:xlink="http://www.w3.org/1999/xlink">
    <!-- Generator: Sketch 52.2 (67145) - http://www.bohemiancoding.com/sketch -->
    <title>Shape</title>
    <desc>Created with Sketch.</desc>
    <g id="Page-1" stroke="none" stroke-width="1" fill="none" fill-rule="evenodd">
        <g id="v3-circle" transform="translate(-792.000000, -361.000000)" fill="#E5E2D4" fill-rule="nonzero">
            <path d="M807.156,361.115 C799.238,361.115 792.818,367.535 792.818,375.453 C792.818,383.371 799.238,389.791 807.156,389.791 C814.377,389.791 820.347,384.453 821.345,377.51 C821.441,377.037 821.486,376.549 821.478,376.045 C821.488,375.85 821.494,375.652 821.494,375.453 C821.494,367.535 815.076,361.115 807.156,361.115 Z M813.756,372.852 C813.762,372.985 813.764,373.118 813.764,373.252 C813.764,377.346 810.649,382.066 804.952,382.066 C803.202,382.066 801.575,381.554 800.204,380.673 C800.446,380.702 800.692,380.716 800.942,380.716 C802.393,380.716 803.729,380.222 804.79,379.39 C803.435,379.367 802.29,378.47 801.895,377.24 C802.084,377.277 802.28,377.297 802.479,377.297 C802.76,377.297 803.034,377.258 803.295,377.188 C801.877,376.903 800.809,375.651 800.809,374.151 C800.809,374.135 800.809,374.124 800.809,374.112 C801.227,374.342 801.705,374.483 802.213,374.499 C801.381,373.942 800.834,372.995 800.834,371.921 C800.834,371.353 800.986,370.821 801.254,370.362 C802.781,372.237 805.065,373.469 807.639,373.6 C807.586,373.373 807.559,373.135 807.559,372.893 C807.559,371.182 808.946,369.795 810.657,369.795 C811.548,369.795 812.352,370.172 812.917,370.774 C813.624,370.635 814.286,370.378 814.886,370.022 C814.654,370.745 814.163,371.352 813.523,371.735 C814.15,371.663 814.748,371.495 815.302,371.249 C814.885,371.869 814.361,372.414 813.756,372.852 Z" id="Shape"></path>
        </g>
    </g>
</svg>